<?xml version="1.0" encoding="UTF-8"?>
<svg id="Layer_3" data-name="Layer 3" xmlns="http://www.w3.org/2000/svg" viewBox="0 0 360 360">
  <defs>
    <style>
      .cls-1 {
        fill: #8198cd;
      }
    </style>
  </defs>
  <path class="cls-1" d="M154.17,274.46c-16.85,32.1-62.07,44.39-93.14,26.59-26.56-15.21-5-60.11-25.25-53.99-10.58,3.2-28.54-11.44-13.51-14.06,9.18-1.59,44.71-30.86,43.94-1.25-1.39,53.78,30.58,66.54,54.49,44.94,64.03-57.85-.6-75.8,15.66-107.7,13.65-26.75.24-26.13-18.1-33.28-24.22-9.44-36.55,4.34-51.19,12.15-8.29,4.42-20.43-1.61-27.63-6.69-6.1-4.31-20.5-20.3-8.64-17.93,22.46,4.48,39.35-10.02,65.64-32.83,21.67-18.81,26.27-22.88,26.27-22.88.3-.21,7.48-4.86-2.47-6.67,0,0-34.56-6.17-57.41,20.05-1.99,2.28-28.9,15.8-28.88,1.52.02-8.63,12.75-26.97,17.03-28.77.23-.09.48-.12.72-.13l94.86-5.68c.39-.08.77-.09,1.13-.02,2.4.41,3.33,3.99,1.76,6.18-3.69,5.15-14.63,20.24-17.86,22.79-10.57,8.36-29.37,21.29-42.43,30.09-2.94,1.99-23.81,20.83-6.54,15.43,12.9-4.02,34.11-12.31,44.98-.99,19.17,19.96,56.01-3.07,39.13,21.97-44.18,65.51,29.09,51.83-12.56,131.16Z"/>
  <path class="cls-1" d="M343.49,299.58s-11.53,15.33-42.14,17.39c-7.14.47-26.12-2.32-48.36-36.32-16.85-25.76-15.43-51.72-14.18-74.62.98-18.09,12.54-57.87-18.33-63.34-5.69-1.01-19.5,2.67-26.82,12.78v72.38c.17-.42,4.9-27.73,13.74-31.92,8.34-3.95,26.3-.73,25.18,13.02,0,0-8.2-6.63-19.01,1.57-7.49,5.7-8.01,32.41-9.36,44.25l-1.51,19.73c-.51,6.71-24.28,32.69-47.99,32.05-8.87-.24,6.96-19.55,7.01-20.04.57-5.44,11.32-8.37,16.41-42.11,1.44-9.53,3.41-48.93,4.79-79.75l-5.52,1.64c-3.34-.8-6.98-3.19-4.76-5.77,2.62-3.05,6.42-7.12,10.95-11.34.59-13.83.97-23.46.97-23.46,0-.59.45-4.17.87-9.6-9.71,3.04-18.63,7.15-23.34,8.51-3.45,1-7.06,1.37-10.62.86-3.33-.49-6.36-1.67-5.52-4.73l33.58-15.69c14.52-20.64-92.75,18.45-59.94-14.38,0,0,26.78,5.01,38.43-14.14,6.65-10.91,16.75,3.48,27.49,6.21-.61-6.89-1.71-13.87-3.56-20.34-4.98-17.41-34.01-22.72-25.78-30.93,0,0,29.23-11.85,32.94,4.94,4.55,20.52,26.34,9.35,15.77,24.24-2.47,3.47-4.44,10.2-6.01,18.09,13.95-9.68,43.61-34.48,51.56-38.23,8.96-4.22,28.07,5.25,35.41,13.68,0,0-45.56,19.22-58.99,26.52-19.41,10.54-26.55,19.76-12.04,19.45,16.46-.34,36.42-4.56,36.42-4.56,0,0-1.12,12.89-19.75,18.1-9.1,2.55-17.97-1.42-27.85-1.14-2.96.09-6.06.51-9.18,1.16-.55,7.13-.79,12.22-.79,12.89v14c9.18-7,19.61-12.77,28.97-12.92,8.39-.12,32.8-2.82,43.42,12.29,13.49,19.21-8.56,41.12-10.81,61.4-4.43,39.93,7.24,56.19,24.08,71.13,21.91,19.45,45.34,20.62,57.15,20.98,3.52.11,6.48,2.64,7.02,6.07Z"/>
</svg>